<svg 
  width="48"
  height="48"
  viewBox="0 0 48 48"
  fill="none"
  xmlns="http://www.w3.org/2000/svg"
>
  <rect 
    width="48" 
    height="48" 
    rx="12" 
    fill="#D9D9D9"
  />
  <path 
    d="M36 34.5H16.5C15.9 34.5 15.375 34.275 14.925 33.825C14.475 33.375 14.25 32.85 14.25 32.25V8.25C14.25 7.65 14.475 7.125 14.925 6.675C15.375 6.225 15.9 6 16.5 6H29.55L38.25 14.7V32.25C38.25 32.85 38.025 33.375 37.575 33.825C37.125 34.275 36.6 34.5 36 34.5ZM28.425 15.675V8.25H16.5V32.25H36V15.675H28.425ZM12 39C11.4 39 10.875 38.775 10.425 38.325C9.975 37.875 9.75 37.35 9.75 36.75V13.5375H12V36.75H30.675V39H12ZM16.5 8.25V15.675V8.25V32.25V8.25Z" 
    fill="#313131"
  />
</svg>
