<svg 
  width="40"
  height="40"
  viewBox="0 0 40 40"
  fill="none"
  xmlns="http://www.w3.org/2000/svg"
>
  <path 
    d="M4.20833 40.875C3.31944 40.875 2.54167 40.5417 1.875 39.875C1.20833 39.2083 0.875 38.4306 0.875 37.5417V4.20833C0.875 3.31944 1.20833 2.54167 1.875 1.875C2.54167 1.20833 3.31944 0.875 4.20833 0.875H29.875L40.875 11.875V37.5417C40.875 38.4306 40.5417 39.2083 39.875 39.875C39.2083 40.5417 38.4306 40.875 37.5417 40.875H4.20833ZM11.375 32.0417C11.8194 32.0417 12.2083 31.875 12.5417 31.5417C12.875 31.2083 13.0417 30.8194 13.0417 30.375C13.0417 29.9306 12.875 29.5417 12.5417 29.2083C12.2083 28.875 11.8194 28.7083 11.375 28.7083C10.9306 28.7083 10.5417 28.875 10.2083 29.2083C9.875 29.5417 9.70833 29.9306 9.70833 30.375C9.70833 30.8194 9.875 31.2083 10.2083 31.5417C10.5417 31.875 10.9306 32.0417 11.375 32.0417ZM11.375 22.5417C11.8194 22.5417 12.2083 22.375 12.5417 22.0417C12.875 21.7083 13.0417 21.3194 13.0417 20.875C13.0417 20.4306 12.875 20.0417 12.5417 19.7083C12.2083 19.375 11.8194 19.2083 11.375 19.2083C10.9306 19.2083 10.5417 19.375 10.2083 19.7083C9.875 20.0417 9.70833 20.4306 9.70833 20.875C9.70833 21.3194 9.875 21.7083 10.2083 22.0417C10.5417 22.375 10.9306 22.5417 11.375 22.5417ZM11.375 13.0417C11.8194 13.0417 12.2083 12.875 12.5417 12.5417C12.875 12.2083 13.0417 11.8194 13.0417 11.375C13.0417 10.9306 12.875 10.5417 12.5417 10.2083C12.2083 9.875 11.8194 9.70833 11.375 9.70833C10.9306 9.70833 10.5417 9.875 10.2083 10.2083C9.875 10.5417 9.70833 10.9306 9.70833 11.375C9.70833 11.8194 9.875 12.2083 10.2083 12.5417C10.5417 12.875 10.9306 13.0417 11.375 13.0417ZM28.0417 13.7083H37.5417L28.0417 4.20833V13.7083Z"
    fill="white"
  />
</svg>
