<svg 
  width="48" 
  height="48" 
  viewBox="0 0 48 48" 
  fill="none" 
  xmlns="http://www.w3.org/2000/svg"
>
  <path 
    d="M9.05931 41.9289C8.26247 41.9289 7.56524 41.6301 6.96761 41.0324C6.36998 40.4348 6.07117 39.7376 6.07117 38.9407V9.05931C6.07117 8.26247 6.36998 7.56524 6.96761 6.96761C7.56524 6.36998 8.26247 6.07117 9.05931 6.07117H32.068L41.9289 15.932V38.9407C41.9289 39.7376 41.6301 40.4348 41.0324 41.0324C40.4348 41.6301 39.7376 41.9289 38.9407 41.9289H9.05931ZM15.4838 34.0103C15.8822 34.0103 16.2309 33.8609 16.5297 33.5621C16.8285 33.2633 16.9779 32.9146 16.9779 32.5162C16.9779 32.1178 16.8285 31.7692 16.5297 31.4704C16.2309 31.1716 15.8822 31.0222 15.4838 31.0222C15.0854 31.0222 14.7368 31.1716 14.438 31.4704C14.1392 31.7692 13.9897 32.1178 13.9897 32.5162C13.9897 32.9146 14.1392 33.2633 14.438 33.5621C14.7368 33.8609 15.0854 34.0103 15.4838 34.0103ZM15.4838 25.4941C15.8822 25.4941 16.2309 25.3447 16.5297 25.0459C16.8285 24.7471 16.9779 24.3984 16.9779 24C16.9779 23.6016 16.8285 23.253 16.5297 22.9542C16.2309 22.6554 15.8822 22.506 15.4838 22.506C15.0854 22.506 14.7368 22.6554 14.438 22.9542C14.1392 23.253 13.9897 23.6016 13.9897 24C13.9897 24.3984 14.1392 24.7471 14.438 25.0459C14.7368 25.3447 15.0854 25.4941 15.4838 25.4941ZM15.4838 16.9779C15.8822 16.9779 16.2309 16.8285 16.5297 16.5297C16.8285 16.2309 16.9779 15.8822 16.9779 15.4838C16.9779 15.0854 16.8285 14.7368 16.5297 14.438C16.2309 14.1392 15.8822 13.9897 15.4838 13.9897C15.0854 13.9897 14.7368 14.1392 14.438 14.438C14.1392 14.7368 13.9897 15.0854 13.9897 15.4838C13.9897 15.8822 14.1392 16.2309 14.438 16.5297C14.7368 16.8285 15.0854 16.9779 15.4838 16.9779ZM30.4245 17.5755H38.9407L30.4245 9.05931V17.5755Z" 
    fill="white"
  />
</svg>
